<svg width="24" height="32" viewBox="0 0 24 32" fill="none" xmlns="http://www.w3.org/2000/svg">
<path fill-rule="evenodd" clip-rule="evenodd" d="M21.2484 16C19.9577 19.908 16.2863 22.7273 11.9587 22.7273C7.63112 22.7273 3.95972 19.908 2.66902 16C3.95972 12.092 7.63112 9.27273 11.9587 9.27273C16.2863 9.27273 19.9577 12.092 21.2484 16ZM21.7142 12.1486C19.5471 9.08785 15.9853 7.09091 11.9587 7.09091C7.93211 7.09091 4.37032 9.08785 2.20323 12.1486C2.59005 7.08156 6.80995 3.09091 11.9587 3.09091C17.1075 3.09091 21.3274 7.08156 21.7142 12.1486ZM23.517 16C23.7782 15.0138 23.9174 13.9778 23.9174 12.9091C23.9174 6.28167 18.5633 0.909088 11.9587 0.909088C5.3541 0.909088 0 6.28167 0 12.9091C0 13.9778 0.139219 15.0138 0.400451 16C0.139219 16.9862 0 18.0222 0 19.0909C0 25.7183 5.3541 31.0909 11.9587 31.0909C18.5633 31.0909 23.9174 25.7183 23.9174 19.0909C23.9174 18.0222 23.7782 16.9862 23.517 16ZM21.7142 19.8514C19.5471 22.9121 15.9853 24.9091 11.9587 24.9091C7.93211 24.9091 4.37032 22.9121 2.20323 19.8514C2.59005 24.9184 6.80995 28.9091 11.9587 28.9091C17.1075 28.9091 21.3274 24.9184 21.7142 19.8514ZM16.3073 16C16.3073 18.41 14.3604 20.3636 11.9587 20.3636C9.55704 20.3636 7.61009 18.41 7.61009 16C7.61009 13.59 9.55704 11.6364 11.9587 11.6364C14.3604 11.6364 16.3073 13.59 16.3073 16Z" fill="#8D80D1"/>
</svg>
